<?xml version="1.0" encoding="UTF-8" standalone="no"?>
<svg
   xmlns:dc="http://purl.org/dc/elements/1.1/"
   xmlns:cc="http://creativecommons.org/ns#"
   xmlns:rdf="http://www.w3.org/1999/02/22-rdf-syntax-ns#"
   xmlns:svg="http://www.w3.org/2000/svg"
   xmlns="http://www.w3.org/2000/svg"
   xmlns:xlink="http://www.w3.org/1999/xlink"
   xmlns:sodipodi="http://sodipodi.sourceforge.net/DTD/sodipodi-0.dtd"
   xmlns:inkscape="http://www.inkscape.org/namespaces/inkscape"
   viewBox="0 0 64 64"
   width="256px"
   height="256px"
   version="1.1"
   id="svg3953"
   sodipodi:docname="icon.svg"
   inkscape:version="0.92.3 (2405546, 2018-03-11)"
   inkscape:export-filename="/home/yann/Documents/project/git/y-a-n-n.github.io/favicon.ico.png"
   inkscape:export-xdpi="15.36"
   inkscape:export-ydpi="15.36">
  <metadata
     id="metadata3959">
    <rdf:RDF>
      <cc:Work
         rdf:about="">
        <dc:format>image/svg+xml</dc:format>
        <dc:type
           rdf:resource="http://purl.org/dc/dcmitype/StillImage" />
        <dc:title />
      </cc:Work>
    </rdf:RDF>
  </metadata>
  <defs
     id="defs3957">
    <linearGradient
       inkscape:collect="always"
       xlink:href="#SUJNhpmDQDF27Y3OfwgfYd"
       id="linearGradient838"
       x1="-107.54297"
       y1="219.67969"
       x2="-8.0898438"
       y2="219.67969"
       gradientUnits="userSpaceOnUse"
       spreadMethod="pad" />
  </defs>
  <sodipodi:namedview
     pagecolor="#ffffff"
     bordercolor="#666666"
     borderopacity="1"
     objecttolerance="10"
     gridtolerance="10"
     guidetolerance="10"
     inkscape:pageopacity="0"
     inkscape:pageshadow="2"
     inkscape:window-width="1853"
     inkscape:window-height="1023"
     id="namedview3955"
     showgrid="false"
     inkscape:zoom="3.2695312"
     inkscape:cx="8.7168448"
     inkscape:cy="128"
     inkscape:window-x="67"
     inkscape:window-y="27"
     inkscape:window-maximized="1"
     inkscape:current-layer="svg3953" />
  <linearGradient
     id="SUJNhpmDQDF27Y3OfwgfYa"
     x1="19"
     x2="19"
     y1="24.858"
     y2="49.041"
     gradientUnits="userSpaceOnUse"
     spreadMethod="reflect">
    <stop
       offset="0"
       stop-color="#6dc7ff"
       id="stop3925" />
    <stop
       offset="1"
       stop-color="#e6abff"
       id="stop3927" />
  </linearGradient>
  <linearGradient
     id="SUJNhpmDQDF27Y3OfwgfYb"
     x1="19.382"
     x2="19.382"
     y1="15.423"
     y2="23.341"
     gradientUnits="userSpaceOnUse"
     spreadMethod="reflect">
    <stop
       offset="0"
       stop-color="#6dc7ff"
       id="stop3932" />
    <stop
       offset="1"
       stop-color="#e6abff"
       id="stop3934" />
  </linearGradient>
  <linearGradient
     id="SUJNhpmDQDF27Y3OfwgfYc"
     x1="37.386"
     x2="37.386"
     y1="14.125"
     y2="49.525"
     gradientUnits="userSpaceOnUse"
     spreadMethod="reflect">
    <stop
       offset="0"
       stop-color="#6dc7ff"
       id="stop3939" />
    <stop
       offset="1"
       stop-color="#e6abff"
       id="stop3941" />
  </linearGradient>
  <linearGradient
     id="SUJNhpmDQDF27Y3OfwgfYd"
     x1="32"
     x2="32"
     y1="6.5"
     y2="57.5"
     gradientUnits="userSpaceOnUse"
     spreadMethod="reflect">
    <stop
       offset="0"
       stop-color="#1a6dff"
       id="stop3946" />
    <stop
       offset="1"
       stop-color="#c822ff"
       id="stop3948" />
  </linearGradient>
  <path
     fill="url(#SUJNhpmDQDF27Y3OfwgfYd)"
     d="M50,57H14c-3.859,0-7-3.141-7-7V14c0-3.859,3.141-7,7-7h36c3.859,0,7,3.141,7,7v36 C57,53.859,53.859,57,50,57z M14,9c-2.757,0-5,2.243-5,5v36c0,2.757,2.243,5,5,5h36c2.757,0,5-2.243,5-5V14c0-2.757-2.243-5-5-5H14z"
     id="path3951" />
  <flowRoot
     xml:space="preserve"
     id="flowRoot3961"
     style="fill:black;fill-opacity:1;stroke:none;font-family:sans-serif;font-style:normal;font-weight:normal;font-size:40px;line-height:1.25;letter-spacing:0px;word-spacing:0px"><flowRegion
       id="flowRegion3963"><rect
         id="rect3965"
         width="133.96416"
         height="136.10513"
         x="61.782558"
         y="62.394264" /></flowRegion><flowPara
       id="flowPara3967" /></flowRoot>  <g
     aria-label="y"
     transform="matrix(0.25,0,0,0.25,47.519116,-22.709678)"
     style="font-style:normal;font-weight:normal;font-size:120px;line-height:1.25;font-family:sans-serif;letter-spacing:0px;word-spacing:0px;fill:url(#linearGradient838);fill-opacity:1;stroke:none"
     id="flowRoot3969">
    <path
       d="m -107.54297,158.66406 h 27.968751 l 23.515625,59.375 20,-59.375 h 27.9687502 l -36.7968752,95.78125 q -5.546875,14.60938 -12.96875,20.39063 -7.34375,5.85937 -19.453125,5.85937 h -16.171875 v -18.35937 h 8.75 q 7.109375,0 10.3125,-2.26563 3.28125,-2.26562 5.078125,-8.125 l 0.78125,-2.42187 z"
       style="font-weight:bold;font-size:160px;fill:url(#linearGradient838);fill-opacity:1"
       id="path894" />
  </g>
</svg>
